
<global>
amp_veltrack=0
ampeg_attack=0.01
ampeg_release=0.85
</global>

<group>
group_label=RR1_0-64
seq_length=4
xfin_hicc1=64
xfout_hicc1=127
xfout_locc1=64

<region>
hivel=127
key=A#3
lovel=1
sample=Altos_Ooh_staccato_PP_A#3_RR1.opus
</region>

<region>
hivel=127
key=A#4
lovel=1
offset=1641
sample=Altos_Ooh_staccato_PP_A#4_RR1.opus
</region>

<region>
hivel=127
key=A3
lovel=1
sample=Altos_Ooh_staccato_PP_A3_RR1.opus
</region>

<region>
hivel=127
key=A4
lovel=1
sample=Altos_Ooh_staccato_PP_A4_RR1.opus
</region>

<region>
hivel=127
key=B3
lovel=1
sample=Altos_Ooh_staccato_PP_B3_RR1.opus
</region>

<region>
hivel=127
key=B4
lovel=1
offset=431
sample=Altos_Ooh_staccato_PP_B4_RR1.opus
</region>

<region>
hivel=127
key=C#4
lovel=1
sample=Altos_Ooh_staccato_PP_C#4_RR1.opus
</region>

<region>
hivel=127
key=C#5
lovel=1
offset=1157
sample=Altos_Ooh_staccato_PP_C#5_RR1.opus
</region>

<region>
hikey=C4
hivel=127
lokey=C4
lovel=1
offset=1414
sample=Altos_Ooh_staccato_PP_C4_RR1.opus
</region>

<region>
hivel=127
key=C5
lovel=1
sample=Altos_Ooh_staccato_PP_C5_RR1.opus
</region>

<region>
hivel=127
key=D#4
lovel=1
offset=850
sample=Altos_Ooh_staccato_PP_D#4_RR1.opus
</region>

<region>
hivel=127
key=D#5
lovel=1
sample=Altos_Ooh_staccato_PP_D#5_RR1.opus
</region>

<region>
hivel=127
key=D4
lovel=1
offset=642
sample=Altos_Ooh_staccato_PP_D4_RR1.opus
</region>

<region>
hivel=127
key=D5
lovel=1
offset=2068
sample=Altos_Ooh_staccato_PP_D5_RR1.opus
</region>

<region>
hivel=127
key=E4
lovel=1
sample=Altos_Ooh_staccato_PP_E4_RR1.opus
</region>

<region>
hivel=127
key=E5
lovel=1
offset=1010
sample=Altos_Ooh_staccato_PP_E5_RR1.opus
</region>

<region>
hivel=127
key=F#4
lovel=1
offset=122
sample=Altos_Ooh_staccato_PP_F#4_RR1.opus
</region>

<region>
hivel=127
key=F4
lovel=1
sample=Altos_Ooh_staccato_PP_F4_RR1.opus
</region>

<region>
hikey=A5
hivel=127
lokey=F5
lovel=1
offset=4587
pitch_keycenter=F5
sample=Altos_Ooh_staccato_PP_F5_RR1.opus
</region>

<region>
hivel=127
key=G#3
lovel=1
sample=Altos_Ooh_staccato_PP_G#3_RR1.opus
</region>

<region>
hivel=127
key=G#4
lovel=1
sample=Altos_Ooh_staccato_PP_G#4_RR1.opus
</region>

<region>
hikey=G3
hivel=127
lokey=D3
lovel=1
pitch_keycenter=G3
sample=Altos_Ooh_staccato_PP_G3_RR1.opus
</region>

<region>
hivel=127
key=G4
lovel=1
sample=Altos_Ooh_staccato_PP_G4_RR1.opus
</region>
</group>

<group>
group_label=RR2_0-64
seq_length=4
seq_position=2
xfin_hicc1=64
xfout_hicc1=127
xfout_locc1=64

<region>
hivel=127
key=A#3
lovel=1
offset=237
sample=Altos_Ooh_staccato_PP_A#3_RR2.opus
</region>

<region>
hivel=127
key=A#4
lovel=1
offset=199
sample=Altos_Ooh_staccato_PP_A#4_RR2.opus
</region>

<region>
hivel=127
key=A3
lovel=1
sample=Altos_Ooh_staccato_PP_A3_RR2.opus
</region>

<region>
hivel=127
key=A4
lovel=1
sample=Altos_Ooh_staccato_PP_A4_RR2.opus
</region>

<region>
hivel=127
key=B3
lovel=1
sample=Altos_Ooh_staccato_PP_B3_RR2.opus
</region>

<region>
hivel=127
key=B4
lovel=1
offset=440
sample=Altos_Ooh_staccato_PP_B4_RR2.opus
</region>

<region>
hivel=127
key=C#4
lovel=1
offset=494
sample=Altos_Ooh_staccato_PP_C#4_RR2.opus
</region>

<region>
hivel=127
key=C#5
lovel=1
sample=Altos_Ooh_staccato_PP_C#5_RR2.opus
</region>

<region>
hikey=C4
hivel=127
lokey=C4
lovel=1
sample=Altos_Ooh_staccato_PP_C4_RR2.opus
</region>

<region>
hivel=127
key=C5
lovel=1
offset=1087
sample=Altos_Ooh_staccato_PP_C5_RR2.opus
</region>

<region>
hivel=127
key=D#4
lovel=1
sample=Altos_Ooh_staccato_PP_D#4_RR2.opus
</region>

<region>
hivel=127
key=D#5
lovel=1
sample=Altos_Ooh_staccato_PP_D#5_RR2.opus
</region>

<region>
hivel=127
key=D4
lovel=1
sample=Altos_Ooh_staccato_PP_D4_RR2.opus
</region>

<region>
hivel=127
key=D5
lovel=1
offset=1261
sample=Altos_Ooh_staccato_PP_D5_RR2.opus
</region>

<region>
hivel=127
key=E4
lovel=1
sample=Altos_Ooh_staccato_PP_E4_RR2.opus
</region>

<region>
hivel=127
key=E5
lovel=1
sample=Altos_Ooh_staccato_PP_E5_RR2.opus
</region>

<region>
hivel=127
key=F#4
lovel=1
sample=Altos_Ooh_staccato_PP_F#4_RR2.opus
</region>

<region>
hivel=127
key=F4
lovel=1
sample=Altos_Ooh_staccato_PP_F4_RR2.opus
</region>

<region>
hikey=A5
hivel=127
lokey=F5
lovel=1
offset=2478
pitch_keycenter=F5
sample=Altos_Ooh_staccato_PP_F5_RR2.opus
</region>

<region>
hivel=127
key=G#3
lovel=1
sample=Altos_Ooh_staccato_PP_G#3_RR2.opus
</region>

<region>
hivel=127
key=G#4
lovel=1
sample=Altos_Ooh_staccato_PP_G#4_RR2.opus
</region>

<region>
hikey=G3
hivel=127
lokey=D3
lovel=1
pitch_keycenter=G3
sample=Altos_Ooh_staccato_PP_G3_RR2.opus
</region>

<region>
hivel=127
key=G4
lovel=1
offset=775
sample=Altos_Ooh_staccato_PP_G4_RR2.opus
</region>
</group>

<group>
group_label=RR3_0-64
seq_length=4
seq_position=3
xfin_hicc1=64
xfout_hicc1=127
xfout_locc1=64

<region>
hivel=127
key=A#3
lovel=1
sample=Altos_Ooh_staccato_PP_A#3_RR3.opus
</region>

<region>
hivel=127
key=A#4
lovel=1
offset=440
sample=Altos_Ooh_staccato_PP_A#4_RR3.opus
</region>

<region>
hivel=127
key=A3
lovel=1
sample=Altos_Ooh_staccato_PP_A3_RR3.opus
</region>

<region>
hivel=127
key=A4
lovel=1
offset=748
sample=Altos_Ooh_staccato_PP_A4_RR3.opus
</region>

<region>
hivel=127
key=B3
lovel=1
sample=Altos_Ooh_staccato_PP_B3_RR3.opus
</region>

<region>
hivel=127
key=B4
lovel=1
sample=Altos_Ooh_staccato_PP_B4_RR3.opus
</region>

<region>
hivel=127
key=C#4
lovel=1
sample=Altos_Ooh_staccato_PP_C#4_RR3.opus
</region>

<region>
hivel=127
key=C#5
lovel=1
sample=Altos_Ooh_staccato_PP_C#5_RR3.opus
</region>

<region>
hikey=C4
hivel=127
lokey=C4
lovel=1
sample=Altos_Ooh_staccato_PP_C4_RR3.opus
</region>

<region>
hivel=127
key=C5
lovel=1
sample=Altos_Ooh_staccato_PP_C5_RR3.opus
</region>

<region>
hivel=127
key=D#4
lovel=1
sample=Altos_Ooh_staccato_PP_D#4_RR3.opus
</region>

<region>
hivel=127
key=D#5
lovel=1
sample=Altos_Ooh_staccato_PP_D#5_RR3.opus
</region>

<region>
hivel=127
key=D4
lovel=1
sample=Altos_Ooh_staccato_PP_D4_RR3.opus
</region>

<region>
hivel=127
key=D5
lovel=1
offset=3899
sample=Altos_Ooh_staccato_PP_D5_RR3.opus
</region>

<region>
hivel=127
key=E4
lovel=1
sample=Altos_Ooh_staccato_PP_E4_RR3.opus
</region>

<region>
hivel=127
key=E5
lovel=1
offset=1732
sample=Altos_Ooh_staccato_PP_E5_RR3.opus
</region>

<region>
hivel=127
key=F#4
lovel=1
sample=Altos_Ooh_staccato_PP_F#4_RR3.opus
</region>

<region>
hivel=127
key=F4
lovel=1
sample=Altos_Ooh_staccato_PP_F4_RR3.opus
</region>

<region>
hikey=A5
hivel=127
lokey=F5
lovel=1
offset=2377
pitch_keycenter=F5
sample=Altos_Ooh_staccato_PP_F5_RR3.opus
</region>

<region>
hivel=127
key=G#3
lovel=1
sample=Altos_Ooh_staccato_PP_G#3_RR3.opus
</region>

<region>
hivel=127
key=G#4
lovel=1
sample=Altos_Ooh_staccato_PP_G#4_RR3.opus
</region>

<region>
hikey=G3
hivel=127
lokey=D3
lovel=1
pitch_keycenter=G3
sample=Altos_Ooh_staccato_PP_G3_RR3.opus
</region>

<region>
hivel=127
key=G4
lovel=1
sample=Altos_Ooh_staccato_PP_G4_RR3.opus
</region>
</group>

<group>
group_label=RR4_0-64
seq_length=4
seq_position=4
xfin_hicc1=64
xfout_hicc1=127
xfout_locc1=64

<region>
hivel=127
key=A#3
lovel=1
sample=Altos_Ooh_staccato_PP_A#3_RR4.opus
</region>

<region>
hivel=127
key=A#4
lovel=1
sample=Altos_Ooh_staccato_PP_A#4_RR4.opus
</region>

<region>
hivel=127
key=A3
lovel=1
sample=Altos_Ooh_staccato_PP_A3_RR4.opus
</region>

<region>
hivel=127
key=A4
lovel=1
offset=2156
sample=Altos_Ooh_staccato_PP_A4_RR4.opus
</region>

<region>
hivel=127
key=B3
lovel=1
sample=Altos_Ooh_staccato_PP_B3_RR4.opus
</region>

<region>
hivel=127
key=B4
lovel=1
offset=1495
sample=Altos_Ooh_staccato_PP_B4_RR4.opus
</region>

<region>
hivel=127
key=C#4
lovel=1
sample=Altos_Ooh_staccato_PP_C#4_RR4.opus
</region>

<region>
hivel=127
key=C#5
lovel=1
offset=1511
sample=Altos_Ooh_staccato_PP_C#5_RR4.opus
</region>

<region>
hikey=C4
hivel=127
lokey=C4
lovel=1
sample=Altos_Ooh_staccato_PP_C4_RR4.opus
</region>

<region>
hivel=127
key=C5
lovel=1
sample=Altos_Ooh_staccato_PP_C5_RR4.opus
</region>

<region>
hivel=127
key=D#4
lovel=1
sample=Altos_Ooh_staccato_PP_D#4_RR4.opus
</region>

<region>
hivel=127
key=D#5
lovel=1
sample=Altos_Ooh_staccato_PP_D#5_RR4.opus
</region>

<region>
hivel=127
key=D4
lovel=1
sample=Altos_Ooh_staccato_PP_D4_RR4.opus
</region>

<region>
hivel=127
key=D5
lovel=1
offset=4253
sample=Altos_Ooh_staccato_PP_D5_RR4.opus
</region>

<region>
hivel=127
key=E4
lovel=1
sample=Altos_Ooh_staccato_PP_E4_RR4.opus
</region>

<region>
hivel=127
key=E5
lovel=1
offset=2099
sample=Altos_Ooh_staccato_PP_E5_RR4.opus
</region>

<region>
hivel=127
key=F#4
lovel=1
sample=Altos_Ooh_staccato_PP_F#4_RR4.opus
</region>

<region>
hivel=127
key=F4
lovel=1
sample=Altos_Ooh_staccato_PP_F4_RR4.opus
</region>

<region>
hikey=A5
hivel=127
lokey=F5
lovel=1
offset=2477
pitch_keycenter=F5
sample=Altos_Ooh_staccato_PP_F5_RR4.opus
</region>

<region>
hivel=127
key=G#3
lovel=1
sample=Altos_Ooh_staccato_PP_G#3_RR4.opus
</region>

<region>
hivel=127
key=G#4
lovel=1
offset=237
sample=Altos_Ooh_staccato_PP_G#4_RR4.opus
</region>

<region>
hikey=G3
hivel=127
lokey=D3
lovel=1
pitch_keycenter=G3
sample=Altos_Ooh_staccato_PP_G3_RR4.opus
</region>

<region>
hivel=127
key=G4
lovel=1
offset=215
sample=Altos_Ooh_staccato_PP_G4_RR4.opus
</region>
</group>

<group>
group_label=RR1_65-127
seq_length=4
xfin_hicc1=127
xfin_locc1=65
xfout_hicc1=127
xfout_locc1=127

<region>
hivel=127
key=A#3
lovel=1
offset=1037
sample=Altos_Ooh_staccato_FF_A#3_RR1.opus
</region>

<region>
hivel=127
key=A#4
lovel=1
offset=1938
sample=Altos_Ooh_staccato_FF_A#4_RR1.opus
</region>

<region>
hivel=127
key=A3
lovel=1
offset=241
sample=Altos_Ooh_staccato_FF_A3_RR1.opus
</region>

<region>
hivel=127
key=A4
lovel=1
offset=1064
sample=Altos_Ooh_staccato_FF_A4_RR1.opus
</region>

<region>
hivel=127
key=B3
lovel=1
offset=482
sample=Altos_Ooh_staccato_FF_B3_RR1.opus
</region>

<region>
hivel=127
key=B4
lovel=1
offset=2128
sample=Altos_Ooh_staccato_FF_B4_RR1.opus
</region>

<region>
hivel=127
key=C#4
lovel=1
sample=Altos_Ooh_staccato_FF_C#4_RR1.opus
</region>

<region>
hivel=127
key=C#5
lovel=1
offset=1027
sample=Altos_Ooh_staccato_FF_C#5_RR1.opus
</region>

<region>
hikey=C4
hivel=127
lokey=C4
lovel=1
offset=488
sample=Altos_Ooh_staccato_FF_C4_RR1.opus
</region>

<region>
hivel=127
key=C5
lovel=1
offset=1212
sample=Altos_Ooh_staccato_FF_C5_RR1.opus
</region>

<region>
hivel=127
key=D#4
lovel=1
offset=1064
sample=Altos_Ooh_staccato_FF_D#4_RR1.opus
</region>

<region>
hivel=127
key=D#5
lovel=1
offset=1309
sample=Altos_Ooh_staccato_FF_D#5_RR1.opus
</region>

<region>
hivel=127
key=D4
lovel=1
offset=1003
sample=Altos_Ooh_staccato_FF_D4_RR1.opus
</region>

<region>
hivel=127
key=D5
lovel=1
offset=243
sample=Altos_Ooh_staccato_FF_D5_RR1.opus
</region>

<region>
hivel=127
key=E4
lovel=1
sample=Altos_Ooh_staccato_FF_E4_RR1.opus
</region>

<region>
hivel=127
key=E5
lovel=1
offset=399
sample=Altos_Ooh_staccato_FF_E5_RR1.opus
</region>

<region>
hivel=127
key=F#4
lovel=1
offset=881
sample=Altos_Ooh_staccato_FF_F#4_RR1.opus
</region>

<region>
hivel=127
key=F4
lovel=1
sample=Altos_Ooh_staccato_FF_F4_RR1.opus
</region>

<region>
hikey=A5
hivel=127
lokey=F5
lovel=1
offset=556
pitch_keycenter=F5
sample=Altos_Ooh_staccato_FF_F5_RR1.opus
</region>

<region>
hivel=127
key=G#3
lovel=1
sample=Altos_Ooh_staccato_FF_G#3_RR1.opus
</region>

<region>
hivel=127
key=G#4
lovel=1
offset=1877
sample=Altos_Ooh_staccato_FF_G#4_RR1.opus
</region>

<region>
hikey=G3
hivel=127
lokey=D3
lovel=1
offset=763
pitch_keycenter=G3
sample=Altos_Ooh_staccato_FF_G3_RR1.opus
</region>

<region>
hivel=127
key=G4
lovel=1
offset=1131
sample=Altos_Ooh_staccato_FF_G4_RR1.opus
</region>
</group>

<group>
group_label=RR2_65-127
seq_length=4
seq_position=2
xfin_hicc1=127
xfin_locc1=65
xfout_hicc1=127
xfout_locc1=127

<region>
hivel=127
key=A#3
lovel=1
sample=Altos_Ooh_staccato_FF_A#3_RR2.opus
</region>

<region>
hivel=127
key=A#4
lovel=1
sample=Altos_Ooh_staccato_FF_A#4_RR2.opus
</region>

<region>
hivel=127
key=A3
lovel=1
sample=Altos_Ooh_staccato_FF_A3_RR2.opus
</region>

<region>
hivel=127
key=A4
lovel=1
sample=Altos_Ooh_staccato_FF_A4_RR2.opus
</region>

<region>
hivel=127
key=B3
lovel=1
sample=Altos_Ooh_staccato_FF_B3_RR2.opus
</region>

<region>
hivel=127
key=B4
lovel=1
offset=529
sample=Altos_Ooh_staccato_FF_B4_RR2.opus
</region>

<region>
hivel=127
key=C#4
lovel=1
sample=Altos_Ooh_staccato_FF_C#4_RR2.opus
</region>

<region>
hivel=127
key=C#5
lovel=1
sample=Altos_Ooh_staccato_FF_C#5_RR2.opus
</region>

<region>
hikey=C4
hivel=127
lokey=C4
lovel=1
sample=Altos_Ooh_staccato_FF_C4_RR2.opus
</region>

<region>
hivel=127
key=C5
lovel=1
offset=1327
sample=Altos_Ooh_staccato_FF_C5_RR2.opus
</region>

<region>
hivel=127
key=D#4
lovel=1
sample=Altos_Ooh_staccato_FF_D#4_RR2.opus
</region>

<region>
hivel=127
key=D#5
lovel=1
offset=1780
sample=Altos_Ooh_staccato_FF_D#5_RR2.opus
</region>

<region>
hivel=127
key=D4
lovel=1
sample=Altos_Ooh_staccato_FF_D4_RR2.opus
</region>

<region>
hivel=127
key=D5
lovel=1
offset=662
sample=Altos_Ooh_staccato_FF_D5_RR2.opus
</region>

<region>
hivel=127
key=E4
lovel=1
sample=Altos_Ooh_staccato_FF_E4_RR2.opus
</region>

<region>
hivel=127
key=E5
lovel=1
offset=2731
sample=Altos_Ooh_staccato_FF_E5_RR2.opus
</region>

<region>
hivel=127
key=F#4
lovel=1
sample=Altos_Ooh_staccato_FF_F#4_RR2.opus
</region>

<region>
hivel=127
key=F4
lovel=1
sample=Altos_Ooh_staccato_FF_F4_RR2.opus
</region>

<region>
hikey=A5
hivel=127
lokey=F5
lovel=1
offset=396
pitch_keycenter=F5
sample=Altos_Ooh_staccato_FF_F5_RR2.opus
</region>

<region>
hivel=127
key=G#3
lovel=1
sample=Altos_Ooh_staccato_FF_G#3_RR2.opus
</region>

<region>
hivel=127
key=G#4
lovel=1
offset=1326
sample=Altos_Ooh_staccato_FF_G#4_RR2.opus
</region>

<region>
hikey=G3
hivel=127
lokey=D3
lovel=1
pitch_keycenter=G3
sample=Altos_Ooh_staccato_FF_G3_RR2.opus
</region>

<region>
hivel=127
key=G4
lovel=1
sample=Altos_Ooh_staccato_FF_G4_RR2.opus
</region>
</group>

<group>
group_label=RR3_65-127
seq_length=4
seq_position=3
xfin_hicc1=127
xfin_locc1=65
xfout_hicc1=127
xfout_locc1=127

<region>
hivel=127
key=A#3
lovel=1
sample=Altos_Ooh_staccato_FF_A#3_RR3.opus
</region>

<region>
hivel=127
key=A#4
lovel=1
sample=Altos_Ooh_staccato_FF_A#4_RR3.opus
</region>

<region>
hivel=127
key=A3
lovel=1
offset=207
sample=Altos_Ooh_staccato_FF_A3_RR3.opus
</region>

<region>
hivel=127
key=A4
lovel=1
offset=111
sample=Altos_Ooh_staccato_FF_A4_RR3.opus
</region>

<region>
hivel=127
key=B3
lovel=1
offset=113
sample=Altos_Ooh_staccato_FF_B3_RR3.opus
</region>

<region>
hivel=127
key=B4
lovel=1
offset=1678
sample=Altos_Ooh_staccato_FF_B4_RR3.opus
</region>

<region>
hivel=127
key=C#4
lovel=1
sample=Altos_Ooh_staccato_FF_C#4_RR3.opus
</region>

<region>
hivel=127
key=C#5
lovel=1
sample=Altos_Ooh_staccato_FF_C#5_RR3.opus
</region>

<region>
hikey=C4
hivel=127
lokey=C4
lovel=1
sample=Altos_Ooh_staccato_FF_C4_RR3.opus
</region>

<region>
hivel=127
key=C5
lovel=1
sample=Altos_Ooh_staccato_FF_C5_RR3.opus
</region>

<region>
hivel=127
key=D#4
lovel=1
sample=Altos_Ooh_staccato_FF_D#4_RR3.opus
</region>

<region>
hivel=127
key=D#5
lovel=1
offset=4184
sample=Altos_Ooh_staccato_FF_D#5_RR3.opus
</region>

<region>
hivel=127
key=D4
lovel=1
sample=Altos_Ooh_staccato_FF_D4_RR3.opus
</region>

<region>
hivel=127
key=D5
lovel=1
offset=341
sample=Altos_Ooh_staccato_FF_D5_RR3.opus
</region>

<region>
hivel=127
key=E4
lovel=1
sample=Altos_Ooh_staccato_FF_E4_RR3.opus
</region>

<region>
hivel=127
key=E5
lovel=1
offset=2585
sample=Altos_Ooh_staccato_FF_E5_RR3.opus
</region>

<region>
hivel=127
key=F#4
lovel=1
sample=Altos_Ooh_staccato_FF_F#4_RR3.opus
</region>

<region>
hivel=127
key=F4
lovel=1
sample=Altos_Ooh_staccato_FF_F4_RR3.opus
</region>

<region>
hikey=A5
hivel=127
lokey=F5
lovel=1
pitch_keycenter=F5
sample=Altos_Ooh_staccato_FF_F5_RR3.opus
</region>

<region>
hivel=127
key=G#3
lovel=1
offset=1334
sample=Altos_Ooh_staccato_FF_G#3_RR3.opus
</region>

<region>
hivel=127
key=G#4
lovel=1
offset=1394
sample=Altos_Ooh_staccato_FF_G#4_RR3.opus
</region>

<region>
hikey=G3
hivel=127
lokey=D3
lovel=1
pitch_keycenter=G3
sample=Altos_Ooh_staccato_FF_G3_RR3.opus
</region>

<region>
hivel=127
key=G4
lovel=1
sample=Altos_Ooh_staccato_FF_G4_RR3.opus
</region>
</group>

<group>
group_label=RR4_65-127
seq_length=4
seq_position=4
xfin_hicc1=127
xfin_locc1=65
xfout_hicc1=127
xfout_locc1=127

<region>
hivel=127
key=A#3
lovel=1
offset=471
sample=Altos_Ooh_staccato_FF_A#3_RR4.opus
</region>

<region>
hivel=127
key=A#4
lovel=1
offset=1015
sample=Altos_Ooh_staccato_FF_A#4_RR4.opus
</region>

<region>
hivel=127
key=A3
lovel=1
sample=Altos_Ooh_staccato_FF_A3_RR4.opus
</region>

<region>
hivel=127
key=A4
lovel=1
sample=Altos_Ooh_staccato_FF_A4_RR4.opus
</region>

<region>
hivel=127
key=B3
lovel=1
offset=877
sample=Altos_Ooh_staccato_FF_B3_RR4.opus
</region>

<region>
hivel=127
key=B4
lovel=1
offset=2655
sample=Altos_Ooh_staccato_FF_B4_RR4.opus
</region>

<region>
hivel=127
key=C#4
lovel=1
sample=Altos_Ooh_staccato_FF_C#4_RR4.opus
</region>

<region>
hivel=127
key=C#5
lovel=1
offset=2693
sample=Altos_Ooh_staccato_FF_C#5_RR4.opus
</region>

<region>
hikey=C4
hivel=127
lokey=C4
lovel=1
sample=Altos_Ooh_staccato_FF_C4_RR4.opus
</region>

<region>
hivel=127
key=C5
lovel=1
offset=3762
sample=Altos_Ooh_staccato_FF_C5_RR4.opus
</region>

<region>
hivel=127
key=D#4
lovel=1
offset=344
sample=Altos_Ooh_staccato_FF_D#4_RR4.opus
</region>

<region>
hivel=127
key=D#5
lovel=1
offset=4598
sample=Altos_Ooh_staccato_FF_D#5_RR4.opus
</region>

<region>
hivel=127
key=D4
lovel=1
sample=Altos_Ooh_staccato_FF_D4_RR4.opus
</region>

<region>
hivel=127
key=D5
lovel=1
offset=2002
sample=Altos_Ooh_staccato_FF_D5_RR4.opus
</region>

<region>
hivel=127
key=E4
lovel=1
sample=Altos_Ooh_staccato_FF_E4_RR4.opus
</region>

<region>
hivel=127
key=E5
lovel=1
offset=676
sample=Altos_Ooh_staccato_FF_E5_RR4.opus
</region>

<region>
hivel=127
key=F#4
lovel=1
sample=Altos_Ooh_staccato_FF_F#4_RR4.opus
</region>

<region>
hivel=127
key=F4
lovel=1
offset=226
sample=Altos_Ooh_staccato_FF_F4_RR4.opus
</region>

<region>
hikey=A5
hivel=127
lokey=F5
lovel=1
offset=721
pitch_keycenter=F5
sample=Altos_Ooh_staccato_FF_F5_RR4.opus
</region>

<region>
hivel=127
key=G#3
lovel=1
offset=563
sample=Altos_Ooh_staccato_FF_G#3_RR4.opus
</region>

<region>
hivel=127
key=G#4
lovel=1
offset=200
sample=Altos_Ooh_staccato_FF_G#4_RR4.opus
</region>

<region>
hikey=G3
hivel=127
lokey=D3
lovel=1
pitch_keycenter=G3
sample=Altos_Ooh_staccato_FF_G3_RR4.opus
</region>

<region>
hivel=127
key=G4
lovel=1
offset=1413
sample=Altos_Ooh_staccato_FF_G4_RR4.opus
</region>
</group>